<?xml version="1.0" encoding="UTF-8" standalone="no"?>
<svg
   xmlns:dc="http://purl.org/dc/elements/1.1/"
   xmlns:cc="http://creativecommons.org/ns#"
   xmlns:rdf="http://www.w3.org/1999/02/22-rdf-syntax-ns#"
   xmlns:svg="http://www.w3.org/2000/svg"
   xmlns="http://www.w3.org/2000/svg"
   xmlns:xlink="http://www.w3.org/1999/xlink"
   xmlns:sodipodi="http://sodipodi.sourceforge.net/DTD/sodipodi-0.dtd"
   xmlns:inkscape="http://www.inkscape.org/namespaces/inkscape"
   height="48"
   id="Layer_1"
   version="1.2"
   viewBox="0 0 48 48"
   width="48"
   xml:space="preserve"
   inkscape:version="0.91 r13725"
   sodipodi:docname="info-large.svg"><metadata
     id="metadata13"><rdf:RDF><cc:Work
         rdf:about=""><dc:format>image/svg+xml</dc:format><dc:type
           rdf:resource="http://purl.org/dc/dcmitype/StillImage" /><dc:title></dc:title></cc:Work></rdf:RDF></metadata><defs
     id="defs11"><linearGradient
       id="linearGradient4163"><stop
         style="stop-color:#e2e2e2;stop-opacity:0.73725492;"
         offset="0"
         id="stop4143" /><stop
         style="stop-color:#e2e2e2;stop-opacity:1;"
         offset="1"
         id="stop4145" /></linearGradient><linearGradient
       inkscape:collect="always"
       xlink:href="#linearGradient4163"
       id="linearGradient4147"
       x1="7.4997683"
       y1="14.5"
       x2="14.499232"
       y2="14.5"
       gradientUnits="userSpaceOnUse" /><linearGradient
       inkscape:collect="always"
       xlink:href="#linearGradient4163"
       id="linearGradient4171"
       x1="10.5"
       y1="6.0009999"
       x2="15.5"
       y2="6.0009999"
       gradientUnits="userSpaceOnUse" /></defs><sodipodi:namedview
     pagecolor="#000000"
     bordercolor="#666666"
     borderopacity="1"
     objecttolerance="10"
     gridtolerance="10"
     guidetolerance="10"
     inkscape:pageopacity="1"
     inkscape:pageshadow="2"
     inkscape:window-width="1600"
     inkscape:window-height="1150"
     id="namedview9"
     showgrid="false"
     inkscape:zoom="9.8333333"
     inkscape:cx="11.288135"
     inkscape:cy="11.79661"
     inkscape:window-x="-8"
     inkscape:window-y="-8"
     inkscape:window-maximized="1"
     inkscape:current-layer="Layer_1" /><g
     id="g3"
     transform="matrix(2.4238177,0,0,2.4238177,-3.8736227,-3.8751154)"><path
       d="m 13.839,17.525 c -0.006,0.002 -0.559,0.186 -1.039,0.186 -0.265,0 -0.372,-0.055 -0.406,-0.079 -0.168,-0.117 -0.48,-0.336 0.054,-1.4 l 1,-1.994 c 0.593,-1.184 0.681,-2.329 0.245,-3.225 C 13.337,10.28 12.654,9.777 11.773,9.597 11.456,9.532 11.134,9.5 10.815,9.5 c -1.849,0 -3.094,1.08 -3.146,1.126 -0.179,0.158 -0.221,0.42 -0.102,0.626 0.12,0.206 0.367,0.3 0.595,0.222 0.005,-0.002 0.559,-0.187 1.039,-0.187 0.263,0 0.369,0.055 0.402,0.078 0.169,0.118 0.482,0.34 -0.051,1.402 l -1,1.995 c -0.594,1.185 -0.681,2.33 -0.245,3.225 0.356,0.733 1.038,1.236 1.921,1.416 0.314,0.063 0.636,0.097 0.954,0.097 1.85,0 3.096,-1.08 3.148,-1.126 0.179,-0.157 0.221,-0.42 0.102,-0.626 -0.12,-0.205 -0.369,-0.297 -0.593,-0.223 z"
       id="path5"
       inkscape:connector-curvature="0"
       style="fill:url(#linearGradient4147);fill-opacity:1" /><circle
       cx="13"
       cy="6.0009999"
       r="2.5"
       id="circle7"
       style="fill:url(#linearGradient4171);fill-opacity:1;stroke-width:0.09191511;stroke-miterlimit:4;stroke-dasharray:none" /></g></svg>