<?xml version="1.0" encoding="UTF-8" standalone="no"?>
<!-- Created with Inkscape (http://www.inkscape.org/) -->

<svg
   xmlns:dc="http://purl.org/dc/elements/1.1/"
   xmlns:cc="http://creativecommons.org/ns#"
   xmlns:rdf="http://www.w3.org/1999/02/22-rdf-syntax-ns#"
   xmlns:svg="http://www.w3.org/2000/svg"
   xmlns="http://www.w3.org/2000/svg"
   xmlns:xlink="http://www.w3.org/1999/xlink"
   xmlns:sodipodi="http://sodipodi.sourceforge.net/DTD/sodipodi-0.dtd"
   xmlns:inkscape="http://www.inkscape.org/namespaces/inkscape"
   width="48"
   height="48"
   id="svg2"
   version="1.1"
   inkscape:version="0.48.0 r9654"
   sodipodi:docname="New document 1">
  <defs
     id="defs4">
    <linearGradient
       inkscape:collect="always"
       id="linearGradient3847">
      <stop
         style="stop-color:#eeeeec;stop-opacity:1;"
         offset="0"
         id="stop3849" />
      <stop
         style="stop-color:#eeeeec;stop-opacity:0;"
         offset="1"
         id="stop3851" />
    </linearGradient>
    <linearGradient
       inkscape:collect="always"
       id="linearGradient3822">
      <stop
         style="stop-color:#d3d7cf;stop-opacity:1;"
         offset="0"
         id="stop3824" />
      <stop
         style="stop-color:#eeeeec;stop-opacity:1"
         offset="1"
         id="stop3826" />
    </linearGradient>
    <linearGradient
       inkscape:collect="always"
       id="linearGradient3037">
      <stop
         style="stop-color:#808080;stop-opacity:1;"
         offset="0"
         id="stop3039" />
      <stop
         style="stop-color:#cccccc;stop-opacity:1"
         offset="1"
         id="stop3041" />
    </linearGradient>
    <linearGradient
       inkscape:collect="always"
       xlink:href="#linearGradient3037"
       id="linearGradient3043"
       x1="23"
       y1="14.862182"
       x2="115"
       y2="100.86218"
       gradientUnits="userSpaceOnUse"
       spreadMethod="reflect"
       gradientTransform="translate(-1.5,-0.5)" />
    <linearGradient
       inkscape:collect="always"
       xlink:href="#linearGradient3822"
       id="linearGradient3828"
       x1="12"
       y1="1048.3622"
       x2="12"
       y2="1006.3622"
       gradientUnits="userSpaceOnUse"
       gradientTransform="translate(0.5,-0.49998262)" />
    <linearGradient
       inkscape:collect="always"
       xlink:href="#linearGradient3822"
       id="linearGradient3841"
       gradientUnits="userSpaceOnUse"
       gradientTransform="translate(0.5,-1004.8622)"
       x1="12"
       y1="1048.3622"
       x2="12"
       y2="1006.3622" />
    <linearGradient
       inkscape:collect="always"
       xlink:href="#linearGradient3847"
       id="linearGradient3853"
       x1="17.412504"
       y1="-10.401939"
       x2="17.412504"
       y2="44.756344"
       gradientUnits="userSpaceOnUse"
       gradientTransform="translate(2,1004.3622)" />
    <linearGradient
       inkscape:collect="always"
       xlink:href="#linearGradient3822"
       id="linearGradient3857"
       gradientUnits="userSpaceOnUse"
       gradientTransform="translate(2.5,-0.4999826)"
       x1="12"
       y1="1048.3622"
       x2="12"
       y2="1006.3622" />
  </defs>
  <sodipodi:namedview
     id="base"
     pagecolor="#ffffff"
     bordercolor="#666666"
     borderopacity="1.0"
     inkscape:pageopacity="0.0"
     inkscape:pageshadow="2"
     inkscape:zoom="1"
     inkscape:cx="44.465142"
     inkscape:cy="12.890016"
     inkscape:document-units="px"
     inkscape:current-layer="layer1"
     showgrid="false"
     inkscape:window-width="1280"
     inkscape:window-height="968"
     inkscape:window-x="-4"
     inkscape:window-y="-4"
     inkscape:window-maximized="1">
    <inkscape:grid
       type="xygrid"
       id="grid3813"
       empspacing="5"
       visible="true"
       enabled="true"
       snapvisiblegridlinesonly="true" />
  </sodipodi:namedview>
  <metadata
     id="metadata7">
    <rdf:RDF>
      <cc:Work
         rdf:about="">
        <dc:format>image/svg+xml</dc:format>
        <dc:type
           rdf:resource="http://purl.org/dc/dcmitype/StillImage" />
        <dc:title></dc:title>
      </cc:Work>
    </rdf:RDF>
  </metadata>
  <g
     inkscape:label="Layer 1"
     inkscape:groupmode="layer"
     id="layer1"
     transform="translate(0,-1004.3622)">
    <path
       style="fill:url(#linearGradient3857);fill-opacity:1;fill-rule:evenodd;stroke:none"
       d="m 13.5,1006.8622 23,0 c 1.662,0 3,1.338 3,3 l 0,36 c 0,1.662 -1.338,3 -3,3 l -23,0 c -1.662,0 -3,-1.338 -3,-3 l 0,-36 c 0,-1.662 1.338,-3 3,-3 z"
       id="rect3815"
       inkscape:connector-curvature="0" />
    <path
       style="fill:#555753;fill-rule:evenodd;stroke:#2e3436;stroke-width:1;stroke-linecap:butt;stroke-linejoin:miter;stroke-opacity:1"
       d="m 13.5,1009.8622 23,0 c 0,0 0,0 0,0 l 0,15 c 0,0 0,0 0,0 l -23,0 c 0,0 0,0 0,0 l 0,-15 c 0,0 0,0 0,0 z"
       id="rect3817"
       inkscape:connector-curvature="0" />
    <path
       id="path3830"
       style="fill:#888a85;fill-rule:evenodd;stroke:#555753;stroke-width:1px;stroke-linecap:butt;stroke-linejoin:miter;stroke-opacity:1"
       d="m 28.5,1036.8622 c 0,1.6569 -1.343145,3 -3,3 -1.656854,0 -3,-1.3431 -3,-3 0,-1.6569 1.343146,-3 3,-3 1.656855,0 3,1.3431 3,3 z m 6,0 c 0,4.9706 -4.029437,9 -9,9 -4.970563,0 -9,-4.0294 -9,-9 0,-4.9706 4.029437,-9 9,-9 4.970563,0 9,4.0294 9,9 z"
       inkscape:connector-curvature="0" />
    <path
       style="fill:url(#linearGradient3853);fill-opacity:1;fill-rule:evenodd;stroke:none"
       d="m 13.5,1006.8622 c -1.662,0 -3,1.338 -3,3 l 0,36 c 0,1.662 1.338,3 3,3 l 2.5625,0 20.21875,-42 -22.78125,0 z"
       id="rect3839"
       inkscape:connector-curvature="0" />
    <path
       id="path3855"
       d="m 13.5,1006.8622 23,0 c 1.662,0 3,1.338 3,3 l 0,36 c 0,1.662 -1.338,3 -3,3 l -23,0 c -1.662,0 -3,-1.338 -3,-3 l 0,-36 c 0,-1.662 1.338,-3 3,-3 z"
       style="fill:none;stroke:#888a85;stroke-width:1px;stroke-linecap:butt;stroke-linejoin:miter;stroke-opacity:1"
       inkscape:connector-curvature="0" />
  </g>
</svg>
