<?xml version="1.0" encoding="UTF-8" standalone="no"?>
<svg
   xmlns:dc="http://purl.org/dc/elements/1.1/"
   xmlns:cc="http://creativecommons.org/ns#"
   xmlns:rdf="http://www.w3.org/1999/02/22-rdf-syntax-ns#"
   xmlns:svg="http://www.w3.org/2000/svg"
   xmlns="http://www.w3.org/2000/svg"
   xmlns:xlink="http://www.w3.org/1999/xlink"
   xmlns:sodipodi="http://sodipodi.sourceforge.net/DTD/sodipodi-0.dtd"
   xmlns:inkscape="http://www.inkscape.org/namespaces/inkscape"
   contentScriptType="text/ecmascript"
   contentStyleType="text/css"
   enable-background="new 0 0 2048 2048"
   height="48"
   id="Layer_1"
   preserveAspectRatio="xMidYMid meet"
   version="1.1"
   viewBox="0 0 48 48"
   width="48"
   xml:space="preserve"
   zoomAndPan="magnify"
   inkscape:version="0.91 r13725"
   sodipodi:docname="tv.svg"><metadata
     id="metadata9"><rdf:RDF><cc:Work
         rdf:about=""><dc:format>image/svg+xml</dc:format><dc:type
           rdf:resource="http://purl.org/dc/dcmitype/StillImage" /><dc:title></dc:title></cc:Work></rdf:RDF></metadata><defs
     id="defs7"><linearGradient
       id="linearGradient4145"><stop
         id="stop4163"
         offset="0"
         style="stop-color:#ffffff;stop-opacity:1;" /><stop
         id="stop4165"
         offset="1"
         style="stop-color:#ffffff;stop-opacity:0.80158728;" /></linearGradient><linearGradient
       id="linearGradient4167"><stop
         style="stop-color:#85c6fe;stop-opacity:1;"
         offset="0"
         id="stop4147" /><stop
         style="stop-color:#5898ff;stop-opacity:1;"
         offset="1"
         id="stop4149" /></linearGradient><linearGradient
       inkscape:collect="always"
       xlink:href="#linearGradient4145"
       id="linearGradient4151"
       x1="0"
       y1="960"
       x2="1920"
       y2="960"
       gradientUnits="userSpaceOnUse"
       gradientTransform="translate(0,-2000)" /><radialGradient
       inkscape:collect="always"
       xlink:href="#linearGradient4167"
       id="radialGradient4171"
       cx="960"
       cy="704"
       fx="960"
       fy="704"
       r="832"
       gradientTransform="matrix(1,0,0,0.53846154,0,-1675.0769)"
       gradientUnits="userSpaceOnUse" /></defs><sodipodi:namedview
     pagecolor="#000000"
     bordercolor="#666666"
     borderopacity="1"
     objecttolerance="10"
     gridtolerance="10"
     guidetolerance="10"
     inkscape:pageopacity="1"
     inkscape:pageshadow="2"
     inkscape:window-width="1600"
     inkscape:window-height="1150"
     id="namedview5"
     showgrid="false"
     showborder="true"
     inkscape:zoom="7.375"
     inkscape:cx="22.511443"
     inkscape:cy="-10.146677"
     inkscape:window-x="-8"
     inkscape:window-y="-8"
     inkscape:window-maximized="1"
     inkscape:current-layer="Layer_1"
     borderlayer="true" /><g
     id="g4142"
     transform="matrix(0.01952684,0,0,0.01952684,5.2542336,44.307914)"><path
       inkscape:connector-curvature="0"
       id="path3"
       d="m 1920,-1712 0,1088 c 0,44 -15.667,81.667 -47,113 -31.333,31.333 -69,47 -113,47 l -544,0 c 0,24.667 5.333,50.5 16,77.5 10.667,27 21.333,50.667 32,71 10.667,20.333 16,34.833 16,43.5 0,17.333 -6.333,32.333 -19,45 -12.667,12.667 -27.667,19 -45,19 l -512,0 c -17.333,0 -32.333,-6.333 -45,-19 -12.667,-12.667 -19,-27.667 -19,-45 0,-9.333 5.333,-24 16,-44 10.667,-20 21.333,-43.333 32,-70 10.667,-26.667 16,-52.667 16,-78 l -544,0 C 116,-464 78.333,-479.667 47,-511 15.667,-542.333 0,-580 0,-624 l 0,-1088 c 0,-44 15.667,-81.667 47,-113 31.333,-31.333 69,-47 113,-47 l 1600,0 c 44,0 81.667,15.667 113,47 31.333,31.333 47,69 47,113 z"
       style="fill:url(#linearGradient4151);fill-opacity:1;stroke:none;stroke-opacity:1" /><path
       inkscape:connector-curvature="0"
       id="path4155"
       d="m 1792,-880 0,-832 c 0,-8.667 -3.167,-16.167 -9.5,-22.5 -6.333,-6.333 -13.833,-9.5 -22.5,-9.5 l -1600,0 c -8.667,0 -16.167,3.167 -22.5,9.5 -6.333,6.333 -9.5,13.833 -9.5,22.5 l 0,832 c 0,8.667 3.167,16.167 9.5,22.5 6.333,6.333 13.833,9.5 22.5,9.5 l 1600,0 c 8.667,0 16.167,-3.167 22.5,-9.5 6.333,-6.333 9.5,-13.833 9.5,-22.5 z"
       style="fill:url(#radialGradient4171);fill-opacity:1;stroke:none;stroke-opacity:1" /></g></svg>