<?xml version="1.0" encoding="UTF-8" standalone="no"?>
<svg
   xmlns:dc="http://purl.org/dc/elements/1.1/"
   xmlns:cc="http://creativecommons.org/ns#"
   xmlns:rdf="http://www.w3.org/1999/02/22-rdf-syntax-ns#"
   xmlns:svg="http://www.w3.org/2000/svg"
   xmlns="http://www.w3.org/2000/svg"
   xmlns:xlink="http://www.w3.org/1999/xlink"
   xmlns:sodipodi="http://sodipodi.sourceforge.net/DTD/sodipodi-0.dtd"
   xmlns:inkscape="http://www.inkscape.org/namespaces/inkscape"
   height="48"
   viewBox="0 0 48 48"
   width="48"
   id="svg2"
   version="1.1"
   inkscape:version="0.91 r13725"
   sodipodi:docname="volume-up.svg">
  <metadata
     id="metadata10">
    <rdf:RDF>
      <cc:Work
         rdf:about="">
        <dc:format>image/svg+xml</dc:format>
        <dc:type
           rdf:resource="http://purl.org/dc/dcmitype/StillImage" />
        <dc:title></dc:title>
      </cc:Work>
    </rdf:RDF>
  </metadata>
  <defs
     id="defs8">
    <linearGradient
       id="linearGradient4138">
      <stop
         style="stop-color:#ffffff;stop-opacity:1;"
         offset="0"
         id="stop4140" />
      <stop
         style="stop-color:#ffffff;stop-opacity:0.84126985;"
         offset="1"
         id="stop4142" />
    </linearGradient>
    <linearGradient
       inkscape:collect="always"
       xlink:href="#linearGradient4138"
       id="linearGradient4144"
       x1="2"
       y1="24"
       x2="46"
       y2="24"
       gradientUnits="userSpaceOnUse" />
  </defs>
  <sodipodi:namedview
     pagecolor="#000000"
     bordercolor="#666666"
     borderopacity="1"
     objecttolerance="10"
     gridtolerance="10"
     guidetolerance="10"
     inkscape:pageopacity="1"
     inkscape:pageshadow="2"
     inkscape:window-width="1600"
     inkscape:window-height="1150"
     id="namedview6"
     showgrid="false"
     inkscape:zoom="10"
     inkscape:cx="2.05"
     inkscape:cy="49.530516"
     inkscape:window-x="-8"
     inkscape:window-y="-8"
     inkscape:window-maximized="1"
     inkscape:current-layer="svg2" />
  <path
     d="m 22.307692,9.61538 0,28.76923 q 0,0.6875 -0.502404,1.18991 -0.502403,0.5024 -1.189903,0.5024 -0.6875,0 -1.189904,-0.5024 l -8.805289,-8.80529 -6.927884,0 q -0.6875,0 -1.189904,-0.5024 Q 2,29.76442 2,29.07692 L 2,18.92308 q 0,-0.6875 0.502404,-1.18991 0.502404,-0.5024 1.189904,-0.5024 l 6.927884,0 8.805289,-8.80529 q 0.502404,-0.5024 1.189904,-0.5024 0.6875,0 1.189903,0.5024 0.502404,0.5024 0.502404,1.1899 z M 32.461538,24 q 0,2.00961 -1.123798,3.74159 -1.123798,1.73197 -2.974759,2.47235 -0.264423,0.13221 -0.661058,0.13221 -0.6875,0 -1.189904,-0.48918 -0.502404,-0.48918 -0.502404,-1.20312 0,-0.55529 0.317308,-0.93871 0.317308,-0.38341 0.766827,-0.66105 0.449519,-0.27765 0.899038,-0.60818 0.44952,-0.33053 0.766827,-0.9387 0.317308,-0.60817 0.317308,-1.50721 0,-0.89904 -0.317308,-1.50721 -0.317307,-0.60818 -0.766827,-0.9387 -0.449519,-0.33053 -0.899038,-0.60818 -0.449519,-0.27764 -0.766827,-0.66105 -0.317308,-0.38342 -0.317308,-0.93871 0,-0.71394 0.502404,-1.20312 0.502404,-0.48918 1.189904,-0.48918 0.396635,0 0.661058,0.13221 Q 30.213942,18.5 31.33774,20.24519 32.461538,21.99038 32.461538,24 Z m 6.769232,0 q 0,4.04567 -2.247597,7.46995 -2.247596,3.42428 -5.949519,4.98438 -0.34375,0.13221 -0.661058,0.13221 -0.713942,0 -1.216346,-0.50241 -0.502404,-0.5024 -0.502404,-1.1899 0,-1.03125 1.03125,-1.5601 1.480769,-0.76682 2.009616,-1.16346 1.95673,-1.42788 3.054086,-3.58293 1.097356,-2.15505 1.097356,-4.58774 0,-2.43269 -1.097356,-4.58774 -1.097356,-2.15505 -3.054086,-3.58293 -0.528847,-0.39664 -2.009616,-1.16347 -1.03125,-0.52884 -1.03125,-1.56009 0,-0.6875 0.502404,-1.18991 0.502404,-0.5024 1.189904,-0.5024 0.34375,0 0.6875,0.13221 3.701923,1.5601 5.949519,4.98438 Q 39.23077,19.95433 39.23077,24 Z M 46,24 q 0,6.08173 -3.35817,11.17187 -3.35818,5.09015 -8.937503,7.4964 -0.34375,0.13221 -0.6875,0.13221 -0.6875,0 -1.189904,-0.5024 -0.502404,-0.50241 -0.502404,-1.18991 0,-0.95192 1.03125,-1.56009 0.185096,-0.10577 0.594952,-0.27765 0.409856,-0.17187 0.594952,-0.27764 1.216346,-0.66106 2.168269,-1.34856 3.252408,-2.40625 5.076928,-6.0024 1.82451,-3.59616 1.82451,-7.64183 0,-4.04567 -1.82451,-7.64183 -1.82452,-3.59615 -5.076928,-6.0024 Q 34.762019,9.66827 33.545673,9.00721 33.360577,8.90144 32.950721,8.72957 32.540865,8.55769 32.355769,8.45192 q -1.03125,-0.60817 -1.03125,-1.56009 0,-0.6875 0.502404,-1.18991 0.502404,-0.5024 1.189904,-0.5024 0.34375,0 0.6875,0.13221 5.579323,2.40625 8.937503,7.49639 Q 46,17.91827 46,24 Z"
     id="path4"
     inkscape:connector-curvature="0"
     style="fill-opacity:1;fill:url(#linearGradient4144)" />
</svg>
