<?xml version="1.0" encoding="UTF-8" standalone="no"?>
<!-- Created with Inkscape (http://www.inkscape.org/) -->

<svg
   xmlns:dc="http://purl.org/dc/elements/1.1/"
   xmlns:cc="http://creativecommons.org/ns#"
   xmlns:rdf="http://www.w3.org/1999/02/22-rdf-syntax-ns#"
   xmlns:svg="http://www.w3.org/2000/svg"
   xmlns="http://www.w3.org/2000/svg"
   xmlns:xlink="http://www.w3.org/1999/xlink"
   xmlns:sodipodi="http://sodipodi.sourceforge.net/DTD/sodipodi-0.dtd"
   xmlns:inkscape="http://www.inkscape.org/namespaces/inkscape"
   width="372.75"
   height="372.75"
   id="svg2"
   version="1.1"
   inkscape:version="0.47 r22583"
   sodipodi:docname="New document 1">
  <defs
     id="defs4">
    <inkscape:perspective
       sodipodi:type="inkscape:persp3d"
       inkscape:vp_x="0 : 526.18109 : 1"
       inkscape:vp_y="0 : 1000 : 0"
       inkscape:vp_z="744.09448 : 526.18109 : 1"
       inkscape:persp3d-origin="372.04724 : 350.78739 : 1"
       id="perspective10" />
    <inkscape:perspective
       id="perspective3802"
       inkscape:persp3d-origin="372.04724 : 350.78739 : 1"
       inkscape:vp_z="744.09448 : 526.18109 : 1"
       inkscape:vp_y="0 : 1000 : 0"
       inkscape:vp_x="0 : 526.18109 : 1"
       sodipodi:type="inkscape:persp3d" />
    <linearGradient
       y2="428.59375"
       x2="298.5"
       y1="626.5625"
       x1="298.5"
       gradientUnits="userSpaceOnUse"
       id="linearGradient3680"
       xlink:href="#linearGradient3635"
       inkscape:collect="always" />
    <linearGradient
       y2="755.42188"
       x2="438.45312"
       y1="719.01184"
       x1="400.02042"
       gradientUnits="userSpaceOnUse"
       id="linearGradient3678"
       xlink:href="#linearGradient3651"
       inkscape:collect="always" />
    <linearGradient
       y2="872.93359"
       x2="392.03125"
       y1="709.36218"
       x1="399.42856"
       gradientTransform="translate(-18,18)"
       gradientUnits="userSpaceOnUse"
       id="linearGradient3676"
       xlink:href="#linearGradient3635"
       inkscape:collect="always" />
    <linearGradient
       y2="802.34375"
       x2="298.5"
       y1="615.46875"
       x1="298.5"
       gradientUnits="userSpaceOnUse"
       id="linearGradient3674"
       xlink:href="#linearGradient3645"
       inkscape:collect="always" />
    <inkscape:perspective
       id="perspective10-0"
       inkscape:persp3d-origin="372.04724 : 350.78739 : 1"
       inkscape:vp_z="744.09448 : 526.18109 : 1"
       inkscape:vp_y="0 : 1000 : 0"
       inkscape:vp_x="0 : 526.18109 : 1"
       sodipodi:type="inkscape:persp3d" />
    <linearGradient
       id="linearGradient3635"
       inkscape:collect="always">
      <stop
         id="stop3637"
         offset="0"
         style="stop-color:#0176c6;stop-opacity:1" />
      <stop
         id="stop3639"
         offset="1"
         style="stop-color:#8fd1fe;stop-opacity:1" />
    </linearGradient>
    <linearGradient
       inkscape:collect="always"
       id="linearGradient3645">
      <stop
         style="stop-color:#016cb3;stop-opacity:1"
         offset="0"
         id="stop3647" />
      <stop
         style="stop-color:#8fd1fe;stop-opacity:1"
         offset="1"
         id="stop3649" />
    </linearGradient>
    <linearGradient
       id="linearGradient3651"
       inkscape:collect="always">
      <stop
         id="stop3653"
         offset="0"
         style="stop-color:#eeeeee;stop-opacity:1;" />
      <stop
         id="stop3655"
         offset="1"
         style="stop-color:#cccccf;stop-opacity:1" />
    </linearGradient>
  </defs>
  <sodipodi:namedview
     id="base"
     pagecolor="#ffffff"
     bordercolor="#666666"
     borderopacity="1.0"
     inkscape:pageopacity="0.0"
     inkscape:pageshadow="2"
     inkscape:zoom="0.98994949"
     inkscape:cx="229.17778"
     inkscape:cy="162.79742"
     inkscape:document-units="px"
     inkscape:current-layer="layer1"
     showgrid="false"
     inkscape:window-width="1116"
     inkscape:window-height="937"
     inkscape:window-x="629"
     inkscape:window-y="69"
     inkscape:window-maximized="0" />
  <metadata
     id="metadata7">
    <rdf:RDF>
      <cc:Work
         rdf:about="">
        <dc:format>image/svg+xml</dc:format>
        <dc:type
           rdf:resource="http://purl.org/dc/dcmitype/StillImage" />
        <dc:title></dc:title>
      </cc:Work>
    </rdf:RDF>
  </metadata>
  <g
     inkscape:label="Layer 1"
     inkscape:groupmode="layer"
     id="layer1"
     transform="translate(-211.48214,-328.84433)">
    <g
       id="g6534">
      <g
         inkscape:label="Layer 1"
         id="layer1-8"
         transform="translate(99.35714,-100.24942)">
        <g
           id="g3668">
          <path
             id="rect2820"
             d="m 137.125,429.09375 c -13.85,0 -25,11.15 -25,25 l 0,322.75 c 0,13.85 11.15,25 25,25 l 254.90625,0 L 484.875,709 l 0,-254.90625 c 0,-13.85 -11.15,-25 -25,-25 l -322.75,0 z"
             style="fill:url(#linearGradient3674);fill-opacity:1;stroke:none" />
          <path
             id="path3659"
             d="m 399.03125,727 c -13.85,0 -25,11.15 -25,25 l 0,49.84375 18,0 L 466.875,727 l -67.84375,0 z"
             style="fill:url(#linearGradient3676);fill-opacity:1;stroke:none" />
          <path
             id="path3603"
             d="M 392.03125,801.84375 484.875,709 l -67.84375,0 c -13.85,0 -25,11.15 -25,25 l 0,67.84375 z"
             style="fill:url(#linearGradient3678);fill-opacity:1;stroke:none" />
          <path
             id="path3626"
             d="m 137.125,429.09375 c -13.85,0 -25,11.15 -25,25 l 0,116.78125 c 45.64078,33.82683 112.65732,55.1875 187.375,55.1875 73.63377,0 139.78755,-20.74092 185.375,-53.71875 l 0,-118.25 c 0,-13.85 -11.15,-25 -25,-25 l -322.75,0 z"
             style="fill:url(#linearGradient3680);fill-opacity:1;stroke:none" />
        </g>
      </g>
      <g
         style="fill:#0169c9;fill-opacity:1"
         transform="matrix(0.55667354,0,0,0.50362677,202.17436,427.42616)"
         id="g3848">
        <path
           sodipodi:type="arc"
           style="fill:#0169c9;fill-opacity:1;stroke:none"
           id="path3812"
           sodipodi:cx="344.28571"
           sodipodi:cy="396.64789"
           sodipodi:rx="70"
           sodipodi:ry="70"
           d="m 414.28571,396.64789 c 0,38.65993 -31.34007,70 -70,70 -38.65994,0 -70,-31.34007 -70,-70 0,-38.65993 31.34006,-70 70,-70 38.65993,0 70,31.34007 70,70 z"
           transform="matrix(0.69695424,0,0,0.69695424,107.01816,136.7659)" />
        <path
           style="fill:#0169c9;fill-opacity:1;stroke:none"
           d="m 357.125,75.21875 c -88.70625,0 -167.24803,33.72297 -215.5,85.5625 l 40,61.65625 c 35.1157,-46.92077 100.54558,-78.46875 175.5,-78.46875 69.39712,0 130.63979,27.06257 167.21875,68.3125 L 565.8125,153.75 C 517.15423,105.90176 441.76173,75.21875 357.125,75.21875 z"
           id="path3814" />
        <path
           style="fill:#0169c9;fill-opacity:1;stroke:none"
           d="m 350,229.5 c -50.45667,0 -96.51719,18.78113 -131.5625,49.6875 l 33.78125,52.09375 C 278.62505,309.04597 312.73394,295.625 350,295.625 c 34.98396,0 67.17684,11.81479 92.84375,31.65625 l 35.84375,-50.625 C 444.0107,247.23634 399.08938,229.5 350,229.5 z"
           id="path3822" />
        <path
           id="path3824"
           transform="translate(-16.162441,-216.17265)"
           d="m 372.15625,138.25 c -116.58406,0 -221.30767,45.12743 -293.4375,116.8125 l 37.90625,58.40625 c 53.30072,-61.70409 147.01391,-102.6875 253.78125,-102.6875 105.94617,0 199.07205,40.33953 252.59375,101.25 L 664.3125,253.75 C 592.20544,182.82091 488.03965,138.25 372.15625,138.25 z"
           style="fill:#0169c9;fill-opacity:1;stroke:none" />
      </g>
      <g
         id="g6524"
         transform="matrix(0.55667354,0,0,0.50362677,203.18452,424.39569)"
         style="fill:#eeeeee;fill-opacity:1">
        <path
           transform="matrix(0.69695424,0,0,0.69695424,107.01816,136.7659)"
           d="m 414.28571,396.64789 c 0,38.65993 -31.34007,70 -70,70 -38.65994,0 -70,-31.34007 -70,-70 0,-38.65993 31.34006,-70 70,-70 38.65993,0 70,31.34007 70,70 z"
           sodipodi:ry="70"
           sodipodi:rx="70"
           sodipodi:cy="396.64789"
           sodipodi:cx="344.28571"
           id="path6526"
           style="fill:#eeeeee;fill-opacity:1;stroke:none"
           sodipodi:type="arc" />
        <path
           id="path6528"
           d="m 357.125,75.21875 c -88.70625,0 -167.24803,33.72297 -215.5,85.5625 l 40,61.65625 c 35.1157,-46.92077 100.54558,-78.46875 175.5,-78.46875 69.39712,0 130.63979,27.06257 167.21875,68.3125 L 565.8125,153.75 C 517.15423,105.90176 441.76173,75.21875 357.125,75.21875 z"
           style="fill:#eeeeee;fill-opacity:1;stroke:none" />
        <path
           id="path6530"
           d="m 350,229.5 c -50.45667,0 -96.51719,18.78113 -131.5625,49.6875 l 33.78125,52.09375 C 278.62505,309.04597 312.73394,295.625 350,295.625 c 34.98396,0 67.17684,11.81479 92.84375,31.65625 l 35.84375,-50.625 C 444.0107,247.23634 399.08938,229.5 350,229.5 z"
           style="fill:#eeeeee;fill-opacity:1;stroke:none" />
        <path
           style="fill:#eeeeee;fill-opacity:1;stroke:none"
           d="m 372.15625,138.25 c -116.58406,0 -221.30767,45.12743 -293.4375,116.8125 l 37.90625,58.40625 c 53.30072,-61.70409 147.01391,-102.6875 253.78125,-102.6875 105.94617,0 199.07205,40.33953 252.59375,101.25 L 664.3125,253.75 C 592.20544,182.82091 488.03965,138.25 372.15625,138.25 z"
           transform="translate(-16.162441,-216.17265)"
           id="path6532" />
      </g>
    </g>
  </g>
</svg>
